<?xml version="1.0" encoding="utf-8"?>
<!-- Generator: Adobe Illustrator 18.1.1, SVG Export Plug-In . SVG Version: 6.00 Build 0)  -->
<!DOCTYPE svg PUBLIC "-//W3C//DTD SVG 1.1//EN" "http://www.w3.org/Graphics/SVG/1.1/DTD/svg11.dtd">
<svg version="1.1" id="Layer_2" xmlns="http://www.w3.org/2000/svg" xmlns:xlink="http://www.w3.org/1999/xlink" x="0px" y="0px"
	 viewBox="0 0 159 122.3" enable-background="new 0 0 159 122.3" xml:space="preserve">
<g>
	<rect x="31.8" y="49" fill="#FFFFFF" stroke="#000000" stroke-width="3" stroke-miterlimit="10" width="95.3" height="71.8"/>
	<rect x="127.1" y="69" fill="#FFFFFF" stroke="#000000" stroke-width="3" stroke-miterlimit="10" width="25.3" height="51.8"/>
	<rect x="6.5" y="69" fill="#FFFFFF" stroke="#000000" stroke-width="3" stroke-miterlimit="10" width="25.3" height="51.8"/>
	<path fill="#FFFFFF" stroke="#000000" stroke-width="3" stroke-miterlimit="10" d="M49.5,75L49.5,75c-2.8,0-5,2.2-5,5v40.8h10V80
		C54.5,77.2,52.2,75,49.5,75z"/>
	<path fill="#FFFFFF" stroke="#000000" stroke-width="3" stroke-miterlimit="10" d="M69.5,75L69.5,75c-2.8,0-5,2.2-5,5v40.8h10V80
		C74.5,77.2,72.2,75,69.5,75z"/>
	<path fill="#FFFFFF" stroke="#000000" stroke-width="3" stroke-miterlimit="10" d="M89.5,75L89.5,75c-2.8,0-5,2.2-5,5v40.8h10V80
		C94.5,77.2,92.2,75,89.5,75z"/>
	<path fill="#FFFFFF" stroke="#000000" stroke-width="3" stroke-miterlimit="10" d="M109.5,75L109.5,75c-2.8,0-5,2.2-5,5v40.8h10V80
		C114.5,77.2,112.3,75,109.5,75z"/>
	<rect x="104.5" y="59" fill="#FFFFFF" stroke="#000000" stroke-width="2.9047" stroke-miterlimit="10" width="10" height="10"/>
	<rect x="84.5" y="59" fill="#FFFFFF" stroke="#000000" stroke-width="2.9047" stroke-miterlimit="10" width="10" height="10"/>
	<rect x="64.5" y="59" fill="#FFFFFF" stroke="#000000" stroke-width="2.9047" stroke-miterlimit="10" width="10" height="10"/>
	<rect x="44.5" y="59" fill="#FFFFFF" stroke="#000000" stroke-width="2.9047" stroke-miterlimit="10" width="10" height="10"/>
	
		<rect x="40.3" y="41.8" fill="#FFFFFF" stroke="#000000" stroke-width="2.9047" stroke-miterlimit="10" width="78.3" height="7.2"/>
	<path fill="#FFFFFF" stroke="#000000" stroke-width="2.9047" stroke-miterlimit="10" d="M57.5,41.8C57.5,29.2,67.7,19,80.3,19
		s22.8,10.2,22.8,22.8H57.5z"/>
	<line fill="#FFFFFF" stroke="#000000" stroke-width="2.9047" stroke-miterlimit="10" x1="79.5" y1="19" x2="79.5" y2="0"/>
	<rect x="73.8" y="3.9" fill="#FFFFFF" stroke="#000000" stroke-width="2.3756" stroke-miterlimit="10" width="5.7" height="5.7"/>
	<rect x="68" y="5.9" fill="#FFFFFF" stroke="#000000" stroke-width="2.3756" stroke-miterlimit="10" width="5.7" height="5.7"/>
	<line fill="#FFFFFF" stroke="#000000" stroke-width="3" stroke-miterlimit="10" x1="6.5" y1="112.4" x2="31.8" y2="112.4"/>
	<line fill="#FFFFFF" stroke="#000000" stroke-width="3" stroke-miterlimit="10" x1="127.1" y1="112.4" x2="152.4" y2="112.4"/>
	<path fill="#FFFFFF" stroke="#000000" stroke-width="3" stroke-miterlimit="10" d="M143.1,112.4h-6.7V83.7c0-1.8,1.5-3.3,3.3-3.3h0
		c1.8,0,3.3,1.5,3.3,3.3V112.4z"/>
	<path fill="#FFFFFF" stroke="#000000" stroke-width="2.5603" stroke-miterlimit="10" d="M152.4,69"/>
	<path fill="#FFFFFF" stroke="#000000" stroke-width="2.5603" stroke-miterlimit="10" d="M127.1,49"/>
	<path fill="#FFFFFF" stroke="#000000" stroke-width="2.5603" stroke-miterlimit="10" d="M132.1,110.9"/>
	<polygon fill="#FFFFFF" stroke="#000000" stroke-width="2.5603" stroke-miterlimit="10" points="155.1,69 127.1,69 127.1,64 
		157.1,64 	"/>
	<polygon fill="#FFFFFF" stroke="#000000" stroke-width="2.5603" stroke-miterlimit="10" points="3.9,69 31.8,69 31.8,64 1.9,64 	
		"/>
	<rect x="148" y="55.2" fill="#FFFFFF" stroke="#000000" stroke-width="2.5603" stroke-miterlimit="10" width="5" height="8.8"/>
	<line fill="#FFFFFF" stroke="#000000" stroke-width="2.5603" stroke-miterlimit="10" x1="127.1" y1="57.8" x2="148" y2="57.8"/>
	<line fill="#FFFFFF" stroke="#000000" stroke-width="2.5603" stroke-miterlimit="10" x1="133.7" y1="57.8" x2="133.7" y2="64"/>
	<line fill="#FFFFFF" stroke="#000000" stroke-width="2.5603" stroke-miterlimit="10" x1="142.1" y1="57.8" x2="142.1" y2="64"/>
	<rect x="6" y="55.2" fill="#FFFFFF" stroke="#000000" stroke-width="2.5603" stroke-miterlimit="10" width="5" height="8.8"/>
	<line fill="#FFFFFF" stroke="#000000" stroke-width="2.5603" stroke-miterlimit="10" x1="31.8" y1="57.8" x2="11" y2="57.8"/>
	<line fill="#FFFFFF" stroke="#000000" stroke-width="2.5603" stroke-miterlimit="10" x1="25.2" y1="57.8" x2="25.2" y2="64"/>
	<line fill="#FFFFFF" stroke="#000000" stroke-width="2.5603" stroke-miterlimit="10" x1="16.9" y1="57.8" x2="16.9" y2="64"/>
	<rect x="15.8" y="80.3" fill="#FFFFFF" stroke="#000000" stroke-width="3" stroke-miterlimit="10" width="6.7" height="32.1"/>
</g>
</svg>
