<?xml version="1.0" encoding="utf-8"?>
<!-- Generator: Adobe Illustrator 18.1.1, SVG Export Plug-In . SVG Version: 6.00 Build 0)  -->
<!DOCTYPE svg PUBLIC "-//W3C//DTD SVG 1.1//EN" "http://www.w3.org/Graphics/SVG/1.1/DTD/svg11.dtd">
<svg version="1.1" id="Layer_2" xmlns="http://www.w3.org/2000/svg" xmlns:xlink="http://www.w3.org/1999/xlink" x="0px" y="0px"
	 viewBox="0 0 120.9 59.5" enable-background="new 0 0 120.9 59.5" xml:space="preserve">
<g>
	<path fill="#FFFFFF" stroke="#000000" stroke-width="2.993" stroke-linecap="round" stroke-miterlimit="10" d="M37,24.4
		c1.4-1.4,2.2-3.4,2.2-5.5c0-4.5-3.6-8.1-8.1-8.1c0,0,0,0,0,0c0-0.3,0-0.6,0-0.9c0-4.6-3.8-8.4-8.4-8.4s-8.4,3.8-8.4,8.4
		c0,0.3,0,0.6,0.1,0.9c-4.2,0.3-7.4,3.8-7.4,8c0,2.1,0.8,3.9,2.1,5.4c-4.4,1.4-7.5,5.5-7.5,10.3c0,6,4.8,10.8,10.8,10.8
		c5.1,0,9.3-3.5,10.5-8.2c1.2,4.7,5.4,8.2,10.5,8.2c6,0,10.8-4.8,10.8-10.8C44.1,29.9,41.1,25.9,37,24.4z"/>
	<line fill="none" stroke="#000000" stroke-width="2.993" stroke-miterlimit="10" x1="22.8" y1="12.9" x2="22.8" y2="57.6"/>
	<line fill="none" stroke="#000000" stroke-width="2.993" stroke-miterlimit="10" x1="30.9" y1="18.9" x2="22.8" y2="25.2"/>
	<line fill="none" stroke="#000000" stroke-width="2.993" stroke-miterlimit="10" x1="13.5" y1="25.9" x2="22.8" y2="33.4"/>
	
		<rect x="54.6" y="22.8" fill="#FFFFFF" stroke="#000000" stroke-width="3" stroke-linecap="round" stroke-miterlimit="10" width="45.2" height="35.2"/>
	<polygon fill="#EDEDED" points="77.2,39.9 80.2,39.9 81.3,42 82.2,42 84.8,44.8 88.6,44.8 90.3,43 93,43 93,50 77.2,50 	"/>
	
		<rect x="77.2" y="31.4" fill="none" stroke="#000000" stroke-width="3" stroke-linecap="round" stroke-miterlimit="10" width="15.8" height="18.6"/>
	
		<rect x="61.1" y="42" fill="none" stroke="#000000" stroke-width="2.9628" stroke-linecap="round" stroke-miterlimit="10" width="9.3" height="16.1"/>
	<g>
		<path fill="#FFFFFF" d="M99.2,37.4c-2.2,0-4-1.8-4-4h-3c0,0.5-0.1,0.9-0.2,1.4l-0.1,0.2l-0.1,0.3c-0.1,0.2-0.2,0.3-0.2,0.4
			l-0.1,0.1c-0.1,0.1-0.2,0.2-0.2,0.3l-0.1,0.1c-0.1,0.1-0.2,0.2-0.2,0.2l-0.1,0.1c-0.1,0.1-0.3,0.2-0.4,0.3l-0.1,0.1
			C90.1,36.9,90,37,89.9,37l-0.1,0.1c-0.1,0.1-0.3,0.1-0.4,0.2l-0.1,0c-0.1,0-0.3,0.1-0.4,0.1l-0.2,0c-0.2,0-0.3,0-0.5,0h-0.1
			c-2.2,0-3.9-1.8-4-4l-3,0c0,2.2-1.8,4-4,4c-2.2,0-4-1.8-4-4h-3c0,2.2-1.8,4-4,4c-0.2,0-0.3,0-0.5,0l-0.1,0c-0.1,0-0.3,0-0.4-0.1
			l-0.1,0c-0.2,0-0.3-0.1-0.5-0.2L64.4,37c-0.1,0-0.2-0.1-0.3-0.2L64,36.8c-0.1-0.1-0.2-0.2-0.4-0.3l-0.1-0.1
			c-0.1-0.1-0.1-0.1-0.2-0.2L63.2,36c-0.1-0.1-0.1-0.2-0.2-0.2c-0.1-0.1-0.1-0.1-0.1-0.2c-0.1-0.1-0.1-0.2-0.2-0.3l0-0.1l-0.1-0.3
			l0-0.1c-0.2-0.5-0.2-0.9-0.2-1.4h-3c0,2.2-1.8,4-4,4c-1.5,0-2.9-0.8-3.6-2.2c-0.2-0.5-0.4-1-0.4-1.5c0-0.4,0-0.8,0.2-1.2l3.9-15.1
			h43.9l3.9,15.1c0.1,0.5,0.2,0.9,0.2,1.2c0,0.6-0.1,1.1-0.4,1.5C102.1,36.6,100.7,37.4,99.2,37.4z"/>
		<path d="M98,18.8l3.6,14c0.1,0.3,0.1,0.6,0.1,0.8c0,0.3-0.1,0.6-0.2,0.9c-0.4,0.9-1.3,1.4-2.2,1.4c-1.4,0-2.5-1.1-2.5-2.5h-6
			c0,0.3-0.1,0.6-0.2,0.9l0,0l0,0.1c0,0,0,0,0,0.1c0,0,0,0,0,0c0,0.1-0.1,0.1-0.1,0.2l-0.1,0.1c0,0.1-0.1,0.1-0.1,0.2
			c0,0-0.1,0.1-0.1,0.1c0,0-0.1,0.1-0.1,0.1l-0.1,0.1c-0.1,0-0.1,0.1-0.2,0.1l-0.1,0.1c-0.1,0-0.1,0.1-0.2,0.1l-0.1,0
			c-0.1,0-0.2,0.1-0.2,0.1l-0.1,0c-0.1,0-0.2,0-0.2,0.1l-0.1,0c-0.1,0-0.2,0-0.3,0l-0.1,0c-1.3,0-2.4-1.1-2.4-2.5l-6,0
			c0,1.4-1.1,2.5-2.5,2.5h0h0c-1.4,0-2.5-1.1-2.5-2.5h-6c0,1.4-1.1,2.5-2.4,2.5l-0.1,0c-0.1,0-0.2,0-0.3,0l-0.1,0
			c-0.1,0-0.2,0-0.2-0.1l-0.1,0c-0.1,0-0.2-0.1-0.2-0.1l-0.1,0c-0.1,0-0.1-0.1-0.2-0.1l-0.1,0c-0.1-0.1-0.1-0.1-0.2-0.1l-0.1-0.1
			c-0.1,0-0.1-0.1-0.1-0.1c0,0-0.1-0.1-0.1-0.1c0,0-0.1-0.1-0.1-0.2l-0.1-0.1c0-0.1-0.1-0.1-0.1-0.2c0,0,0,0,0,0c0,0,0-0.1,0-0.1
			l0-0.1l0-0.1c-0.1-0.3-0.2-0.6-0.2-0.8h-6c0,1.4-1.1,2.5-2.5,2.5c-1,0-1.8-0.5-2.2-1.4c-0.1-0.3-0.2-0.6-0.2-0.9
			c0-0.2,0-0.5,0.1-0.8l3.6-14h8.7h24.2H98 M100.3,15.8h-11H65.1h-11l-4.1,16.3c-0.1,0.5-0.2,1.1-0.2,1.7c0,0.7,0.2,1.5,0.5,2.1
			c0.9,1.8,2.8,3,4.9,3c3,0,5.5-2.5,5.5-5.5c0,0.7,0.1,1.3,0.3,1.9c0,0.1,0,0.1,0.1,0.2c0,0.1,0.1,0.1,0.1,0.2
			c0,0.1,0.1,0.1,0.1,0.2c0,0,0,0.1,0.1,0.1c0.1,0.2,0.2,0.3,0.3,0.5c0.1,0.1,0.1,0.2,0.2,0.2c0.1,0.1,0.2,0.2,0.3,0.3
			c0.1,0.1,0.1,0.1,0.2,0.2c0.1,0.1,0.2,0.2,0.3,0.3c0.1,0,0.1,0.1,0.2,0.1c0.2,0.1,0.3,0.2,0.5,0.4c0.1,0,0.1,0.1,0.2,0.1
			c0.1,0.1,0.3,0.1,0.4,0.2c0.1,0,0.1,0.1,0.2,0.1c0.2,0.1,0.4,0.2,0.6,0.2c0.1,0,0.1,0,0.2,0c0.2,0,0.3,0.1,0.5,0.1
			c0.1,0,0.1,0,0.2,0c0.2,0,0.5,0,0.7,0c0,0,0,0,0,0c0,0,0,0,0,0s0,0,0,0c3,0,5.5-2.4,5.5-5.5c0,3,2.5,5.5,5.5,5.5c0,0,0,0,0,0
			c0,0,0,0,0,0c3,0,5.5-2.4,5.5-5.5c0,3,2.5,5.5,5.5,5.5c0,0,0,0,0,0c0,0,0,0,0,0c0,0,0,0,0,0c0.2,0,0.5,0,0.7,0c0.1,0,0.1,0,0.2,0
			c0.2,0,0.3-0.1,0.5-0.1c0.1,0,0.1,0,0.2,0c0.2-0.1,0.4-0.1,0.6-0.2c0.1,0,0.1-0.1,0.2-0.1c0.1-0.1,0.3-0.1,0.4-0.2
			c0.1,0,0.1-0.1,0.2-0.1c0.2-0.1,0.3-0.2,0.5-0.4c0.1,0,0.1-0.1,0.2-0.1c0.1-0.1,0.2-0.2,0.3-0.3c0.1-0.1,0.1-0.1,0.2-0.2
			c0.1-0.1,0.2-0.2,0.3-0.3c0.1-0.1,0.1-0.2,0.2-0.2c0.1-0.2,0.2-0.3,0.3-0.5c0,0,0-0.1,0.1-0.1c0-0.1,0.1-0.1,0.1-0.2
			c0-0.1,0.1-0.1,0.1-0.2c0-0.1,0-0.1,0.1-0.2c0.2-0.6,0.3-1.2,0.3-1.9c0,3,2.5,5.5,5.5,5.5c2.2,0,4-1.2,4.9-3
			c0.3-0.7,0.5-1.4,0.5-2.1c0-0.6-0.1-1.1-0.2-1.7L100.3,15.8L100.3,15.8z"/>
	</g>
	
		<line fill="#FFFFFF" stroke="#000000" stroke-width="3" stroke-linecap="square" stroke-miterlimit="10" x1="82.8" y1="23.8" x2="82.8" y2="29.2"/>
	
		<line fill="#FFFFFF" stroke="#000000" stroke-width="3" stroke-linecap="square" stroke-miterlimit="10" x1="71.9" y1="23.8" x2="71.9" y2="29.2"/>
	
		<line fill="#FFFFFF" stroke="#000000" stroke-width="3" stroke-linecap="square" stroke-miterlimit="10" x1="92.2" y1="23.8" x2="93.1" y2="29.2"/>
	
		<line fill="#FFFFFF" stroke="#000000" stroke-width="3" stroke-linecap="square" stroke-miterlimit="10" x1="62" y1="23.8" x2="61.1" y2="29.2"/>
	<g>
		<rect x="55.6" y="11.2" fill="#FFFFFF" width="43.3" height="6"/>
		<path d="M97.3,12.7v3H57.1v-3H97.3 M100.4,9.6H54.1v9h46.3V9.6L100.4,9.6z"/>
	</g>
	<rect x="67.3" y="46.8" width="2.3" height="5"/>
	<rect x="89.6" y="47.5" fill="#FFFFFF" stroke="#000000" stroke-width="3" stroke-miterlimit="10" width="24.1" height="10.5"/>
	<rect x="108.2" y="53.7" fill="#FFFFFF" stroke="#000000" stroke-width="3" stroke-miterlimit="10" width="11.2" height="4.3"/>
</g>
</svg>
