<?xml version="1.0" encoding="utf-8"?>
<!-- Generator: Adobe Illustrator 18.1.1, SVG Export Plug-In . SVG Version: 6.00 Build 0)  -->
<!DOCTYPE svg PUBLIC "-//W3C//DTD SVG 1.1//EN" "http://www.w3.org/Graphics/SVG/1.1/DTD/svg11.dtd">
<svg version="1.1" id="Layer_2" xmlns="http://www.w3.org/2000/svg" xmlns:xlink="http://www.w3.org/1999/xlink" x="0px" y="0px"
	 viewBox="0 0 115.8 84.5" enable-background="new 0 0 115.8 84.5" xml:space="preserve">
<g>
	<polygon fill="#FFFFFF" stroke="#000000" stroke-width="3" stroke-linecap="round" stroke-miterlimit="10" points="88.9,83 
		93.6,83 93.6,69.6 91.3,67.3 89,69.6 	"/>
	<polygon fill="#FFFFFF" stroke="#000000" stroke-width="3" stroke-linecap="round" stroke-miterlimit="10" points="84.3,83 
		88.9,83 88.9,69.6 86.6,67.3 84.3,69.6 	"/>
	<polygon fill="#FFFFFF" stroke="#000000" stroke-width="3" stroke-linecap="round" stroke-miterlimit="10" points="79.6,83 
		84.3,83 84.3,69.6 81.9,67.3 79.6,69.6 	"/>
	<rect x="20.3" y="32.7" fill="#FFFFFF" stroke="#000000" stroke-width="3" stroke-miterlimit="10" width="59.3" height="50.3"/>
	<rect x="29.1" y="44.4" fill="none" stroke="#000000" stroke-width="3" stroke-miterlimit="10" width="8" height="11"/>
	<line fill="none" stroke="#000000" stroke-width="3" stroke-miterlimit="10" x1="26.3" y1="55.5" x2="39.9" y2="55.5"/>
	<polygon fill="none" stroke="#000000" stroke-width="3" stroke-miterlimit="10" points="37.5,40.7 28.6,40.7 27.8,44.4 38.3,44.4 	
		"/>
	<rect x="45.9" y="44.4" fill="none" stroke="#000000" stroke-width="3" stroke-miterlimit="10" width="8" height="11"/>
	<line fill="none" stroke="#000000" stroke-width="3" stroke-miterlimit="10" x1="43.1" y1="55.5" x2="56.7" y2="55.5"/>
	<polygon fill="none" stroke="#000000" stroke-width="3" stroke-miterlimit="10" points="54.3,40.7 45.5,40.7 44.6,44.4 55.2,44.4 	
		"/>
	<rect x="62.8" y="44.4" fill="none" stroke="#000000" stroke-width="3" stroke-miterlimit="10" width="8" height="11"/>
	<line fill="none" stroke="#000000" stroke-width="3" stroke-miterlimit="10" x1="60" y1="55.5" x2="73.6" y2="55.5"/>
	<polygon fill="none" stroke="#000000" stroke-width="3" stroke-miterlimit="10" points="71.2,40.7 62.3,40.7 61.5,44.4 72,44.4 	
		"/>
	
		<rect x="45.3" y="64.3" fill="none" stroke="#000000" stroke-width="3" stroke-linecap="round" stroke-miterlimit="10" width="9.3" height="18.8"/>
	<rect x="51.4" y="69" width="2.3" height="5"/>
	<rect x="62.8" y="64.5" fill="none" stroke="#000000" stroke-width="3" stroke-miterlimit="10" width="8" height="11"/>
	<line fill="none" stroke="#000000" stroke-width="3" stroke-miterlimit="10" x1="60" y1="75.5" x2="73.6" y2="75.5"/>
	<polygon fill="none" stroke="#000000" stroke-width="3" stroke-miterlimit="10" points="71.2,60.7 62.3,60.7 61.5,64.5 72,64.5 	
		"/>
	<rect x="29.1" y="64.5" fill="none" stroke="#000000" stroke-width="3" stroke-miterlimit="10" width="8" height="11"/>
	<line fill="none" stroke="#000000" stroke-width="3" stroke-miterlimit="10" x1="26.3" y1="75.5" x2="39.9" y2="75.5"/>
	<polygon fill="none" stroke="#000000" stroke-width="3" stroke-miterlimit="10" points="37.5,60.7 28.6,60.7 27.8,64.5 38.3,64.5 	
		"/>
	<polygon fill="#FFFFFF" stroke="#000000" stroke-width="3" stroke-miterlimit="10" points="18.5,33.6 81.3,33.6 49.8,2.1 	"/>
	<line fill="#FFFFFF" stroke="#000000" stroke-width="3" stroke-miterlimit="10" x1="66.8" y1="19.1" x2="66.8" y2="9.7"/>
	<path fill="#FFFFFF" stroke="#000000" stroke-width="2.993" stroke-linecap="round" stroke-miterlimit="10" d="M107.3,50.4
		c1.4-1.4,2.2-3.4,2.2-5.5c0-4.5-3.6-8.1-8.1-8.1c0,0,0,0,0,0c0-0.3,0-0.6,0-0.9c0-4.6-3.8-8.4-8.4-8.4s-8.4,3.8-8.4,8.4
		c0,0.3,0,0.6,0.1,0.9c-4.2,0.3-7.4,3.8-7.4,8c0,2.1,0.8,3.9,2.1,5.4c-4.4,1.4-7.5,5.5-7.5,10.3c0,6,4.8,10.8,10.8,10.8
		c5.1,0,9.3-3.5,10.5-8.2c1.2,4.7,5.4,8.2,10.5,8.2c6,0,10.8-4.8,10.8-10.8C114.3,55.9,111.4,51.9,107.3,50.4z"/>
	<line fill="none" stroke="#000000" stroke-width="2.993" stroke-miterlimit="10" x1="93.1" y1="38.9" x2="93.1" y2="83.6"/>
	<line fill="none" stroke="#000000" stroke-width="2.993" stroke-miterlimit="10" x1="101.1" y1="44.9" x2="93.1" y2="51.2"/>
	<line fill="none" stroke="#000000" stroke-width="2.993" stroke-miterlimit="10" x1="83.7" y1="51.9" x2="93" y2="59.4"/>
	<polygon fill="#FFFFFF" stroke="#000000" stroke-width="3" stroke-linecap="round" stroke-miterlimit="10" points="15.6,83 
		20.3,83 20.3,69.6 17.9,67.3 15.6,69.6 	"/>
	<polygon fill="#FFFFFF" stroke="#000000" stroke-width="3" stroke-linecap="round" stroke-miterlimit="10" points="10.9,83 
		15.6,83 15.6,69.6 13.2,67.3 10.9,69.6 	"/>
	<polygon fill="#FFFFFF" stroke="#000000" stroke-width="3" stroke-linecap="round" stroke-miterlimit="10" points="6.2,83 10.9,83 
		10.9,69.6 8.5,67.3 6.2,69.6 	"/>
	<polygon fill="#FFFFFF" stroke="#000000" stroke-width="3" stroke-linecap="round" stroke-miterlimit="10" points="1.5,83 6.2,83 
		6.2,69.6 3.8,67.3 1.5,69.6 	"/>
</g>
</svg>
