<?xml version="1.0" encoding="utf-8"?>
<!-- Generator: Adobe Illustrator 18.1.1, SVG Export Plug-In . SVG Version: 6.00 Build 0)  -->
<!DOCTYPE svg PUBLIC "-//W3C//DTD SVG 1.1//EN" "http://www.w3.org/Graphics/SVG/1.1/DTD/svg11.dtd">
<svg version="1.1" id="Layer_2" xmlns="http://www.w3.org/2000/svg" xmlns:xlink="http://www.w3.org/1999/xlink" x="0px" y="0px"
	 viewBox="0 0 98.3 201.2" enable-background="new 0 0 98.3 201.2" xml:space="preserve">
<g>
	<rect x="1.5" y="107.7" fill="none" stroke="#C6C6C6" stroke-width="3.0033" stroke-miterlimit="10" width="95.3" height="92.1"/>
	<rect x="7.5" y="71.8" fill="none" stroke="#C6C6C6" stroke-width="3" stroke-miterlimit="10" width="83.3" height="35.8"/>
	<line fill="none" stroke="#C6C6C6" stroke-width="3" stroke-miterlimit="10" x1="9.1" y1="113.8" x2="9.1" y2="132.8"/>
	<line fill="none" stroke="#C6C6C6" stroke-width="3" stroke-miterlimit="10" x1="19.1" y1="113.8" x2="19.1" y2="132.8"/>
	<line fill="none" stroke="#C6C6C6" stroke-width="3" stroke-miterlimit="10" x1="29.2" y1="113.8" x2="29.2" y2="132.8"/>
	<line fill="none" stroke="#C6C6C6" stroke-width="3" stroke-miterlimit="10" x1="39.2" y1="113.8" x2="39.2" y2="132.8"/>
	<line fill="none" stroke="#C6C6C6" stroke-width="3" stroke-miterlimit="10" x1="49.2" y1="113.8" x2="49.2" y2="132.8"/>
	<line fill="none" stroke="#C6C6C6" stroke-width="3" stroke-miterlimit="10" x1="59.2" y1="113.8" x2="59.2" y2="132.8"/>
	<line fill="none" stroke="#C6C6C6" stroke-width="3" stroke-miterlimit="10" x1="69.2" y1="113.8" x2="69.2" y2="132.8"/>
	<line fill="none" stroke="#C6C6C6" stroke-width="3" stroke-miterlimit="10" x1="79.2" y1="113.8" x2="79.2" y2="132.8"/>
	<line fill="none" stroke="#C6C6C6" stroke-width="3" stroke-miterlimit="10" x1="89.2" y1="113.8" x2="89.2" y2="132.8"/>
	<line fill="none" stroke="#C6C6C6" stroke-width="3" stroke-miterlimit="10" x1="9.1" y1="138.8" x2="9.1" y2="157.9"/>
	<line fill="none" stroke="#C6C6C6" stroke-width="3" stroke-miterlimit="10" x1="19.1" y1="138.8" x2="19.1" y2="157.9"/>
	<line fill="none" stroke="#C6C6C6" stroke-width="3" stroke-miterlimit="10" x1="29.2" y1="138.8" x2="29.2" y2="157.9"/>
	<line fill="none" stroke="#C6C6C6" stroke-width="3" stroke-miterlimit="10" x1="39.2" y1="138.8" x2="39.2" y2="157.9"/>
	<line fill="none" stroke="#C6C6C6" stroke-width="3" stroke-miterlimit="10" x1="49.2" y1="138.8" x2="49.2" y2="157.9"/>
	<line fill="none" stroke="#C6C6C6" stroke-width="3" stroke-miterlimit="10" x1="59.2" y1="138.8" x2="59.2" y2="157.9"/>
	<line fill="none" stroke="#C6C6C6" stroke-width="3" stroke-miterlimit="10" x1="69.2" y1="138.8" x2="69.2" y2="157.9"/>
	<line fill="none" stroke="#C6C6C6" stroke-width="3" stroke-miterlimit="10" x1="79.2" y1="138.8" x2="79.2" y2="157.9"/>
	<line fill="none" stroke="#C6C6C6" stroke-width="3" stroke-miterlimit="10" x1="89.2" y1="138.8" x2="89.2" y2="157.9"/>
	<line fill="none" stroke="#C6C6C6" stroke-width="3" stroke-miterlimit="10" x1="9.1" y1="170.8" x2="9.1" y2="189.9"/>
	<line fill="none" stroke="#C6C6C6" stroke-width="3" stroke-miterlimit="10" x1="19.1" y1="170.8" x2="19.1" y2="189.9"/>
	<line fill="none" stroke="#C6C6C6" stroke-width="3" stroke-miterlimit="10" x1="29.2" y1="165.2" x2="29.2" y2="199.7"/>
	<line fill="none" stroke="#C6C6C6" stroke-width="3" stroke-miterlimit="10" x1="69.2" y1="165.2" x2="69.2" y2="199.7"/>
	<line fill="none" stroke="#C6C6C6" stroke-width="3" stroke-miterlimit="10" x1="79.2" y1="170.8" x2="79.2" y2="189.9"/>
	<line fill="none" stroke="#C6C6C6" stroke-width="3" stroke-miterlimit="10" x1="89.2" y1="170.8" x2="89.2" y2="189.9"/>
	<line fill="none" stroke="#C6C6C6" stroke-width="3.1615" stroke-miterlimit="10" x1="1.5" y1="165.2" x2="96.8" y2="165.2"/>
	
		<rect x="39.2" y="173.7" fill="none" stroke="#C6C6C6" stroke-width="2.9628" stroke-linecap="round" stroke-miterlimit="10" width="9.3" height="26.1"/>
	
		<rect x="48.5" y="173.7" fill="none" stroke="#C6C6C6" stroke-width="2.9628" stroke-linecap="round" stroke-miterlimit="10" width="9.3" height="26.1"/>
	<rect x="17.8" y="79.7" fill="none" stroke="#C6C6C6" stroke-width="3" stroke-miterlimit="10" width="6.9" height="6.9"/>
	<rect x="31.9" y="79.7" fill="none" stroke="#C6C6C6" stroke-width="3" stroke-miterlimit="10" width="6.9" height="6.9"/>
	<rect x="45.9" y="79.7" fill="none" stroke="#C6C6C6" stroke-width="3" stroke-miterlimit="10" width="6.9" height="6.9"/>
	<rect x="59.9" y="79.7" fill="none" stroke="#C6C6C6" stroke-width="3" stroke-miterlimit="10" width="6.9" height="6.9"/>
	<rect x="73.9" y="79.7" fill="none" stroke="#C6C6C6" stroke-width="3" stroke-miterlimit="10" width="6.9" height="6.9"/>
	<rect x="17.8" y="93.7" fill="none" stroke="#C6C6C6" stroke-width="3" stroke-miterlimit="10" width="6.9" height="6.9"/>
	<rect x="31.9" y="93.7" fill="none" stroke="#C6C6C6" stroke-width="3" stroke-miterlimit="10" width="6.9" height="6.9"/>
	<rect x="45.9" y="93.7" fill="none" stroke="#C6C6C6" stroke-width="3" stroke-miterlimit="10" width="6.9" height="6.9"/>
	<rect x="59.9" y="93.7" fill="none" stroke="#C6C6C6" stroke-width="3" stroke-miterlimit="10" width="6.9" height="6.9"/>
	<rect x="73.9" y="93.7" fill="none" stroke="#C6C6C6" stroke-width="3" stroke-miterlimit="10" width="6.9" height="6.9"/>
	<line fill="none" stroke="#C6C6C6" stroke-width="3" stroke-miterlimit="10" x1="49.2" y1="0" x2="49.2" y2="70.6"/>
	<polyline fill="none" stroke="#C6C6C6" stroke-width="3" stroke-miterlimit="10" points="17.5,71.8 49.2,10 80.8,71.8 	"/>
	<polyline fill="none" stroke="#C6C6C6" stroke-width="3" stroke-miterlimit="10" points="66.8,71.8 49.2,10 31.9,71.8 	"/>
</g>
</svg>
