<?xml version="1.0" encoding="UTF-8" standalone="no"?>
<!-- Generator: Adobe Illustrator 18.1.1, SVG Export Plug-In . SVG Version: 6.00 Build 0)  -->

<svg
   xmlns:dc="http://purl.org/dc/elements/1.1/"
   xmlns:cc="http://creativecommons.org/ns#"
   xmlns:rdf="http://www.w3.org/1999/02/22-rdf-syntax-ns#"
   xmlns:svg="http://www.w3.org/2000/svg"
   xmlns="http://www.w3.org/2000/svg"
   xmlns:sodipodi="http://sodipodi.sourceforge.net/DTD/sodipodi-0.dtd"
   xmlns:inkscape="http://www.inkscape.org/namespaces/inkscape"
   version="1.1"
   x="0px"
   y="0px"
   viewBox="0 0 70 43"
   enable-background="new 0 0 70 43"
   xml:space="preserve"
   id="svg3789"
   sodipodi:docname="car.svg"
   inkscape:version="0.92.3 (2405546, 2018-03-11)"><metadata
   id="metadata3795"><rdf:RDF><cc:Work
       rdf:about=""><dc:format>image/svg+xml</dc:format><dc:type
         rdf:resource="http://purl.org/dc/dcmitype/StillImage" /></cc:Work></rdf:RDF></metadata><defs
   id="defs3793" /><sodipodi:namedview
   pagecolor="#ffffff"
   bordercolor="#666666"
   borderopacity="1"
   objecttolerance="10"
   gridtolerance="10"
   guidetolerance="10"
   inkscape:pageopacity="0"
   inkscape:pageshadow="2"
   inkscape:window-width="1920"
   inkscape:window-height="1017"
   id="namedview3791"
   showgrid="false"
   inkscape:zoom="19.069767"
   inkscape:cx="35"
   inkscape:cy="22.339409"
   inkscape:window-x="-8"
   inkscape:window-y="-8"
   inkscape:window-maximized="1"
   inkscape:current-layer="g3786" />
<g
   id="Layer_3">
</g>
<g
   id="Layer_2">
	<g
   id="g3786">
		<polygon
   fill="#FFFFFF"
   points="54.8,12.1 41.9,9.1 41.9,29.5 42.4,29.5 42.4,37.6 48.3,37.6 48.3,29.5 54.8,29.5   "
   id="polygon3756" />
		<circle
   fill="#FFFFFF"
   stroke="#000000"
   stroke-width="3"
   stroke-miterlimit="10"
   cx="15.8"
   cy="37.6"
   r="3.9"
   id="circle3758" />
		<circle
   fill="#FFFFFF"
   stroke="#000000"
   stroke-width="3"
   stroke-miterlimit="10"
   cx="54.8"
   cy="37.6"
   r="3.9"
   id="circle3760" />
		<path
   fill="#FFFFFF"
   stroke="#000000"
   stroke-width="3"
   stroke-miterlimit="10"
   d="M42.4,37.6v-31V1.5H1.5v36.1H8    c0-4.3,3.5-7.8,7.8-7.8s7.8,3.5,7.8,7.8H47c0-4.3,3.5-7.8,7.8-7.8s7.8,3.5,7.8,7.8h4.5V28c0,0,0.1-8.5-12.3-8.5"
   id="path3762" />
		<path
   fill="#FFFFFF"
   stroke="#C6C6C6"
   stroke-width="3"
   stroke-miterlimit="10"
   d="M40,11.3"
   id="path3764" />
		<polyline
   fill="none"
   stroke="#000000"
   stroke-width="3"
   stroke-miterlimit="10"
   points="41.9,8.8 54.8,11.3 54.8,29.8   "
   id="polyline3766" />
		<line
   fill="#E61F53"
   stroke="#000000"
   stroke-width="3"
   stroke-miterlimit="10"
   x1="54.8"
   y1="19.5"
   x2="42.4"
   y2="19.5"
   id="line3768" />
		<rect
   x="67.8"
   y="28"
   width="2.1"
   height="4.5"
   id="rect3770" />
		<line
   fill="#FFFFFF"
   stroke="#000000"
   stroke-width="3"
   stroke-miterlimit="10"
   x1="65.6"
   y1="37.6"
   x2="69.4"
   y2="37.6"
   id="line3772" />
		
	<path
   style="fill:#000000;stroke-width:0.02408312"
   d="m 25.671268,32.075339 c -0.09476,-0.06647 -0.345154,-0.242002 -0.556434,-0.390067 -1.245338,-0.872726 -2.365884,-1.942802 -3.232743,-3.087138 -1.212518,-1.600632 -2.035109,-3.440817 -2.44877,-5.478035 -0.120086,-0.591415 -0.132801,-0.55681 0.149211,-0.406158 1.214793,0.648947 2.52711,1.705355 3.452918,2.779573 1.423073,1.651194 2.341424,3.586046 2.696795,5.681813 0.07588,0.447485 0.134293,0.927208 0.120001,0.985465 -0.0064,0.02606 -0.05417,0.0035 -0.180978,-0.08545 z M 24.609726,23.65522 C 22.300075,22.287868 20.475573,21.147827 18.634092,19.921343 13.462915,16.477178 10.046671,13.539378 8.6580087,11.342412 8.2315427,10.66771 7.8061127,9.7431698 7.6165827,9.0791978 c -0.134262,-0.470358 -0.178376,-0.805421 -0.165156,-1.254445 0.01207,-0.4097348 0.03647,-0.5440713 0.149077,-0.820322 0.181257,-0.4446848 0.531263,-0.8039093 1.01775,-1.0445553 0.573018,-0.2834499 1.187225,-0.3974207 2.1410663,-0.3972922 1.1581,1.798e-4 2.404234,0.2029729 3.978393,0.647511 2.22047,0.6270538 4.545053,1.8718835 6.595446,3.5319065 1.090963,0.8832562 2.183255,1.9699022 3.037074,3.0213752 1.722511,2.121257 2.881849,4.433908 3.385027,6.752455 0.04631,0.213408 0.08421,0.395318 0.08421,0.404245 0,0.0089 -0.08437,-0.06202 -0.187496,-0.157665 -3.93907,-3.65339 -7.742305,-6.774353 -9.961403,-8.174404 -1.085654,-0.684949 -3.012322,-1.6055802 -4.052301,-1.9363342 -0.473183,-0.15049 -0.652402,-0.184235 -0.97981,-0.184485 -0.269357,-2.16e-4 -0.301252,0.0048 -0.441806,0.06911 -0.252807,0.115696 -0.403417,0.329295 -0.477937,0.6778222 -0.04808,0.22484 -0.04691,0.795466 0.0021,1.033922 0.11556,0.562133 0.480556,1.136651 1.158773,1.823955 1.037064,1.050963 2.31228,1.961704 4.984159,3.559618 0.452211,0.270445 0.824525,0.489418 0.827364,0.486605 0.0028,-0.0028 0.02261,-0.268735 0.04393,-0.590939 0.02132,-0.322203 0.04305,-0.590067 0.04829,-0.595252 0.01828,-0.01812 1.049079,0.557276 1.947625,1.08716 1.900003,1.120457 3.50664,2.20188 4.64748,3.128205 0.341011,0.27689 0.868488,0.74371 0.868488,0.768616 0,0.0096 -0.06949,0.118431 -0.154411,0.241757 -0.56893,0.826178 -0.984973,1.830253 -1.068894,2.579663 -0.0092,0.08241 -0.02354,0.149189 -0.0318,0.148397 -0.0083,-7.75e-4 -0.189209,-0.104564 -0.402105,-0.230603 z m 6.967538,-5.631775 c -1.806267,-0.951985 -3.184352,-1.931821 -4.230679,-3.008063 -0.99154,-1.019891 -1.584979,-2.034878 -1.821305,-3.115066 -0.08267,-0.37786 -0.105405,-1.085987 -0.04739,-1.476074 0.07187,-0.4833422 0.268337,-1.0838512 0.532789,-1.6285462 0.469381,-0.966789 1.096533,-1.637461 1.925566,-2.0591898 0.676258,-0.3440121 1.20172,-0.4653256 2.124904,-0.4905773 l 0.564461,-0.015441 0.202745,-0.3436785 c 0.256635,-0.435029 0.432731,-0.6785587 0.673924,-0.931991 0.789792,-0.8298716 1.826542,-1.0652176 3.026512,-0.6870287 0.740917,0.2335111 1.548868,0.6983189 2.442745,1.4052927 0.167344,0.1323531 0.300083,0.2447831 0.294974,0.249845 -0.0051,0.00506 -0.195686,-0.081638 -0.423508,-0.1926668 -0.653095,-0.3182867 -1.235018,-0.5127598 -1.806161,-0.6036019 -0.30549,-0.048587 -0.82925,-0.049048 -1.100774,-9.733e-4 -0.779783,0.1380841 -1.400453,0.5772786 -1.86432,1.3192204 l -0.119069,0.190449 0.07439,0.030992 c 0.110538,0.046056 0.391061,0.3246499 0.587067,0.5830233 0.189324,0.2495688 0.316825,0.4806418 0.361969,0.6560088 l 0.02917,0.113346 0.181127,-0.134774 c 0.580377,-0.431847 1.254843,-0.7393195 1.845024,-0.8411046 0.343006,-0.059154 0.92526,-0.035801 1.215052,0.048737 0.960439,0.2801819 1.736149,1.0388296 2.393144,2.3405086 0.239012,0.473547 0.454149,0.9927663 0.63136,1.5237533 0.05966,0.178747 0.108469,0.331766 0.108469,0.340041 0,0.0083 -0.05577,-0.0816 -0.123949,-0.199714 -0.166627,-0.28871 -0.537165,-0.826959 -0.764439,-1.1104353 -0.262075,-0.32688 -0.800969,-0.849513 -1.071609,-1.039275 -0.620064,-0.434759 -1.227238,-0.588496 -1.779974,-0.450688 -0.23574,0.05877 -0.574967,0.223366 -0.784092,0.380439 -0.205063,0.154024 -0.560806,0.519661 -0.744626,0.765335 -0.139786,0.186821 -0.144961,0.198782 -0.1247,0.288131 0.08378,0.3695003 0.154267,1.4846153 0.131384,2.0785083 -0.07438,1.930394 -0.451746,3.46781 -1.206345,4.914649 -0.266498,0.510972 -0.803808,1.330894 -0.871792,1.330331 -0.01462,-1.25e-4 -0.222541,-0.103501 -0.46205,-0.229733 z m 0.4113,-4.383809 c 0.445158,-0.707762 0.595396,-1.660781 0.421592,-2.674303 -0.05776,-0.336846 -0.188697,-0.811156 -0.276428,-1.0013752 -0.09485,-0.205659 -0.297023,-0.474977 -0.495258,-0.65975 -0.660303,-0.615461 -1.325653,-0.402256 -1.96682,0.630248 -0.177266,0.2854572 -0.397771,0.7611662 -0.455617,0.9829292 -0.06676,0.255937 -0.07239,0.613322 -0.0132,0.839087 0.210935,0.804716 1.041292,1.496651 2.362343,1.968539 0.139713,0.0499 0.266858,0.0913 0.282547,0.09198 0.01569,7.14e-4 0.07907,-0.07913 0.140848,-0.177353 z"
   id="path3759"
   inkscape:connector-curvature="0" /></g>
</g>
</svg>