<?xml version="1.0" encoding="utf-8"?>
<!-- Generator: Adobe Illustrator 18.1.1, SVG Export Plug-In . SVG Version: 6.00 Build 0)  -->
<!DOCTYPE svg PUBLIC "-//W3C//DTD SVG 1.1//EN" "http://www.w3.org/Graphics/SVG/1.1/DTD/svg11.dtd">
<svg version="1.1" id="Capa_1" xmlns="http://www.w3.org/2000/svg" xmlns:xlink="http://www.w3.org/1999/xlink" x="0px" y="0px"
	 viewBox="-21 217.5 956.7 566.3" enable-background="new -21 217.5 956.7 566.3" xml:space="preserve">
<g>
	<path d="M761.7,435.5c-0.2,0-0.3,0-0.5,0c-7.7-121.7-108.9-218-232.5-218c-114.1,0-209,82-229.1,190.2c-2.6-0.1-5.3-0.2-7.9-0.2
		c-85,0-156.7,56.3-180.1,133.6c-3.6-0.3-7.3-0.5-11-0.5C33.5,540.6-21,595-21,662.2c0,67.2,54.4,121.6,121.5,121.6
		c1,0,661.1,0,661.1,0c96.2,0,174.1-78,174.1-174.1C935.7,513.6,857.9,435.5,761.7,435.5z"/>
</g>
</svg>
