<?xml version="1.0" encoding="utf-8"?>
<!-- Generator: Adobe Illustrator 18.1.1, SVG Export Plug-In . SVG Version: 6.00 Build 0)  -->
<!DOCTYPE svg PUBLIC "-//W3C//DTD SVG 1.1//EN" "http://www.w3.org/Graphics/SVG/1.1/DTD/svg11.dtd">
<svg version="1.1" id="Layer_2" xmlns="http://www.w3.org/2000/svg" xmlns:xlink="http://www.w3.org/1999/xlink" x="0px" y="0px"
	 viewBox="0 0 34.8 49.7" enable-background="new 0 0 34.8 49.7" xml:space="preserve">
<g>
	<polyline fill="none" stroke="#000000" stroke-width="3" stroke-linecap="square" stroke-miterlimit="10" points="17.4,48.2 
		17.4,4.2 17.4,1.5 29.1,1.5 29.1,6 	"/>
	<polyline fill="#FFFFFF" stroke="#000000" stroke-width="3" stroke-linecap="square" stroke-miterlimit="10" points="17.4,4.2 
		5.6,4.2 5.6,8.4 	"/>
	<path fill="#FFFFFF" stroke="#000000" stroke-width="2.5588" stroke-linecap="square" stroke-miterlimit="10" d="M32.8,9.4
		c0-2-1.6-3.6-3.6-3.6s-3.6,1.6-3.6,3.6H32.8z"/>
	<path fill="#FFFFFF" stroke="#000000" stroke-width="2.5588" stroke-linecap="square" stroke-miterlimit="10" d="M9.3,12
		c0-2-1.6-3.6-3.6-3.6S2,10,2,12H9.3z"/>
	<line fill="#FFFFFF" stroke="#000000" stroke-linecap="square" stroke-miterlimit="10" x1="29.1" y1="13" x2="29.1" y2="15.6"/>
	<line fill="#FFFFFF" stroke="#000000" stroke-linecap="square" stroke-miterlimit="10" x1="32.2" y1="13.4" x2="34.1" y2="15.3"/>
	<line fill="#FFFFFF" stroke="#000000" stroke-linecap="square" stroke-miterlimit="10" x1="27" y1="12.1" x2="25.1" y2="13.9"/>
	<line fill="#FFFFFF" stroke="#000000" stroke-linecap="square" stroke-miterlimit="10" x1="5.6" y1="15.3" x2="5.6" y2="18"/>
	<line fill="#FFFFFF" stroke="#000000" stroke-linecap="square" stroke-miterlimit="10" x1="8.7" y1="15.7" x2="10.6" y2="17.6"/>
	<line fill="#FFFFFF" stroke="#000000" stroke-linecap="square" stroke-miterlimit="10" x1="2.6" y1="15.7" x2="0.7" y2="17.6"/>
</g>
</svg>
